{
  "accessors": [
    {
      "bufferView": 1,
      "componentType": 5126,
      "count": 5380,
      "max": [
        57.02143859863281,
        2.7000091075897217,
        135.022216796875
      ],
      "min": [
        -57.02058410644531,
        -2.700007915496826,
        1.503708004951477
      ],
      "type": "VEC3"
    },
    {
      "bufferView": 1,
      "byteOffset": 64560,
      "componentType": 5126,
      "count": 5380,
      "max": [
        0.9999879002571106,
        1.0,
        0.9999551177024841
      ],
      "min": [
        -0.999961256980896,
        -1.0,
        -1.0
      ],
      "type": "VEC3"
    },
    {
      "bufferView": 0,
      "componentType": 5125,
      "count": 32256,
      "type": "SCALAR"
    }
  ],
  "asset": {
    "extras": {
      "author": "marctacchi (https://sketchfab.com/marctacchi)",
      "license": "CC-BY-4.0 (http://creativecommons.org/licenses/by/4.0/)",
      "source": "https://sketchfab.com/3d-models/marc-tacchi-apple-logo-render-229770725b764919a9bc4ea16e7b10ed",
      "title": "Marc Tacchi Apple Logo Render"
    },
    "generator": "Sketchfab-12.75.0",
    "version": "2.0"
  },
  "bufferViews": [
    {
      "buffer": 0,
      "byteLength": 129024,
      "name": "floatBufferViews",
      "target": 34963
    },
    {
      "buffer": 0,
      "byteLength": 129120,
      "byteOffset": 129024,
      "byteStride": 12,
      "name": "floatBufferViews",
      "target": 34962
    }
  ],
  "buffers": [
    {
      "byteLength": 258144,
      "uri": "scene.bin"
    }
  ],
  "materials": [
    {
      "doubleSided": true,
      "name": "wire_000000000",
      "pbrMetallicRoughness": {
        "metallicFactor": 0.0,
        "roughnessFactor": 0.9167555019498095
      }
    }
  ],
  "meshes": [
    {
      "name": "Object_0",
      "primitives": [
        {
          "attributes": {
            "NORMAL": 1,
            "POSITION": 0
          },
          "indices": 2,
          "material": 0,
          "mode": 4
        }
      ]
    }
  ],
  "nodes": [
    {
      "children": [
        1
      ],
      "matrix": [
        1.0,
        0.0,
        0.0,
        0.0,
        0.0,
        2.220446049250313e-16,
        -1.0,
        0.0,
        0.0,
        1.0,
        2.220446049250313e-16,
        0.0,
        0.0,
        0.0,
        0.0,
        1.0
      ],
      "name": "Sketchfab_model"
    },
    {
      "children": [
        2
      ],
      "name": "AppleLogo.obj.cleaner.materialmerger.gles"
    },
    {
      "mesh": 0,
      "name": "Object_2"
    }
  ],
  "scene": 0,
  "scenes": [
    {
      "name": "Sketchfab_Scene",
      "nodes": [
        0
      ]
    }
  ]
}
