<svg xmlns="http://www.w3.org/2000/svg" version="1.1" xmlns:xlink="http://www.w3.org/1999/xlink" xmlns:svgjs="http://svgjs.dev/svgjs" width="1000" height="1000" viewBox="0 0 1000 1000"><g transform="matrix(1,0,0,1,-0.14221556886212738,-0.14221556886229791)"><svg viewBox="0 0 334 334" data-background-color="#ffffff" preserveAspectRatio="xMidYMid meet" height="1000" width="1000" xmlns="http://www.w3.org/2000/svg" xmlns:xlink="http://www.w3.org/1999/xlink"><g id="tight-bounds" transform="matrix(1,0,0,1,0.04749999999998522,0.04750000000001364)"><svg viewBox="0 0 333.90454557049503 333.90454557049503" height="333.90454557049503" width="333.90454557049503"><g><svg></svg></g><g><svg viewBox="0 0 333.90454557049503 333.90454557049503" height="333.90454557049503" width="333.90454557049503"><g><path d="M0 166.952c0-92.205 74.747-166.952 166.952-166.952 92.205 0 166.952 74.747 166.953 166.952 0 92.205-74.747 166.952-166.953 166.953-92.205 0-166.952-74.747-166.952-166.953zM166.952 316.63c82.665 0 149.677-67.013 149.678-149.678 0-82.665-67.013-149.677-149.678-149.677-82.665 0-149.677 67.013-149.677 149.677 0 82.665 67.013 149.677 149.677 149.678z" data-fill-palette-color="tertiary" fill="#000000" stroke="transparent"></path><ellipse rx="160.27418187383762" ry="160.27418187383762" cx="166.95227278524752" cy="166.95227278524752" fill="#000000" stroke="transparent" stroke-width="0" fill-opacity="1" data-fill-palette-color="tertiary"></ellipse></g><g transform="matrix(1,0,0,1,114.64848970235417,71.17305217166896)"><svg viewBox="0 0 104.60756616578668 191.55844122715712" height="191.55844122715712" width="104.60756616578668"><g><svg viewBox="0 0 104.60756616578668 191.55844122715712" height="191.55844122715712" width="104.60756616578668"><g><svg viewBox="0 0 104.60756616578668 191.55844122715712" height="191.55844122715712" width="104.60756616578668"><g><svg viewBox="0 0 104.60756616578668 191.55844122715712" height="191.55844122715712" width="104.60756616578668"><g id="textblocktransform"><svg viewBox="0 0 104.60756616578668 191.55844122715712" height="191.55844122715712" width="104.60756616578668" id="textblock"><g><svg viewBox="0 0 104.60756616578668 191.55844122715712" height="191.55844122715712" width="104.60756616578668"><g transform="matrix(1,0,0,1,0,0)"><svg width="104.60756616578668" viewBox="0.5 -28.75 15.7 28.75" height="191.55844122715712" data-palette-color="#ffffff"><path d="M4.95-19.8L0.5-19.8 9.45-28.75 9.45-24 16.2-24 16.2-19.8 9.45-19.8 9.45-9.5Q9.45-7.75 10.03-6.6 10.6-5.45 11.7-4.98 12.8-4.5 13.78-4.35 14.75-4.2 16.2-4.2L16.2-4.2 16.2 0Q10.45 0 7.7-2.2 4.95-4.4 4.95-9.5L4.95-9.5 4.95-19.8Z" opacity="1" transform="matrix(1,0,0,1,0,0)" fill="#ffffff" class="wordmark-text-0" data-fill-palette-color="quaternary" id="text-0"></path></svg></g></svg></g></svg></g></svg></g><g></g></svg></g></svg></g></svg></g></svg></g><defs></defs></svg><rect width="333.90454557049503" height="333.90454557049503" fill="none" stroke="none" visibility="hidden"></rect></g></svg></g></svg>