{
  "accessors": [
    {
      "bufferView": 2,
      "componentType": 5126,
      "count": 2358,
      "max": [
        5.602355003356934,
        2.8403239250183105,
        22.782651901245117
      ],
      "min": [
        -6.013895034790039,
        -2.857326030731201,
        -0.01142599992454052
      ],
      "type": "VEC3"
    },
    {
      "bufferView": 2,
      "byteOffset": 28296,
      "componentType": 5126,
      "count": 2358,
      "max": [
        1.0,
        1.0,
        1.0
      ],
      "min": [
        -1.0,
        -1.0,
        -1.0
      ],
      "type": "VEC3"
    },
    {
      "bufferView": 1,
      "componentType": 5126,
      "count": 2358,
      "max": [
        0.9919670224189758,
        0.9750530123710632
      ],
      "min": [
        0.02423500083386898,
        0.005107999779284
      ],
      "type": "VEC2"
    },
    {
      "bufferView": 0,
      "componentType": 5125,
      "count": 6474,
      "type": "SCALAR"
    },
    {
      "bufferView": 2,
      "byteOffset": 56592,
      "componentType": 5126,
      "count": 36,
      "max": [
        4.990207195281982,
        0.7603210210800171,
        17.635955810546875
      ],
      "min": [
        -5.451182842254639,
        -0.7896569967269897,
        0.36244699358940125
      ],
      "type": "VEC3"
    },
    {
      "bufferView": 2,
      "byteOffset": 57024,
      "componentType": 5126,
      "count": 36,
      "max": [
        1.0,
        0.9883258938789368,
        0.0
      ],
      "min": [
        -1.0,
        -0.9883258938789368,
        0.0
      ],
      "type": "VEC3"
    },
    {
      "bufferView": 1,
      "byteOffset": 18864,
      "componentType": 5126,
      "count": 36,
      "max": [
        0.546875,
        0.6884400248527527
      ],
      "min": [
        0.421875,
        0.3125
      ],
      "type": "VEC2"
    },
    {
      "bufferView": 0,
      "byteOffset": 25896,
      "componentType": 5125,
      "count": 96,
      "type": "SCALAR"
    },
    {
      "bufferView": 2,
      "byteOffset": 57456,
      "componentType": 5126,
      "count": 1027,
      "max": [
        3.6793689727783203,
        0.5476400256156921,
        18.505882263183594
      ],
      "min": [
        -3.2014880180358887,
        -0.4999839961528778,
        5.342807769775391
      ],
      "type": "VEC3"
    },
    {
      "bufferView": 2,
      "byteOffset": 69780,
      "componentType": 5126,
      "count": 1027,
      "max": [
        1.0,
        1.0,
        1.0
      ],
      "min": [
        -1.0,
        -1.0,
        -1.0
      ],
      "type": "VEC3"
    },
    {
      "bufferView": 1,
      "byteOffset": 19152,
      "componentType": 5126,
      "count": 1027,
      "max": [
        0.990231990814209,
        0.9404379725456238
      ],
      "min": [
        0.11800000071525574,
        0.036598000675439835
      ],
      "type": "VEC2"
    },
    {
      "bufferView": 0,
      "byteOffset": 26280,
      "componentType": 5125,
      "count": 3285,
      "type": "SCALAR"
    }
  ],
  "asset": {
    "extras": {
      "author": "Suyog modak (https://sketchfab.com/Suyogmdk)",
      "license": "CC-BY-4.0 (http://creativecommons.org/licenses/by/4.0/)",
      "source": "https://sketchfab.com/3d-models/tesla-super-charger-low-poly-b9fc975778f542babbb2e861d32b1acd",
      "title": "Tesla Super Charger. ( low-poly )"
    },
    "generator": "Sketchfab-13.74.0",
    "version": "2.0"
  },
  "bufferViews": [
    {
      "buffer": 0,
      "byteLength": 39420,
      "name": "floatBufferViews",
      "target": 34963
    },
    {
      "buffer": 0,
      "byteLength": 27368,
      "byteOffset": 39420,
      "byteStride": 8,
      "name": "floatBufferViews",
      "target": 34962
    },
    {
      "buffer": 0,
      "byteLength": 82104,
      "byteOffset": 66788,
      "byteStride": 12,
      "name": "floatBufferViews",
      "target": 34962
    }
  ],
  "buffers": [
    {
      "byteLength": 148892,
      "uri": "scene.bin"
    }
  ],
  "images": [
    {
      "uri": "textures/aiStandardSurface4SG_baseColor.jpeg"
    },
    {
      "uri": "textures/aiStandardSurface4SG_emissive.jpeg"
    }
  ],
  "materials": [
    {
      "doubleSided": true,
      "emissiveFactor": [
        1.0,
        1.0,
        1.0
      ],
      "emissiveTexture": {
        "index": 1
      },
      "name": "aiStandardSurface4SG",
      "pbrMetallicRoughness": {
        "baseColorTexture": {
          "index": 0
        },
        "metallicFactor": 0.11407676910253524,
        "roughnessFactor": 0.10190858039826482
      }
    },
    {
      "doubleSided": true,
      "name": "blinn1SG",
      "pbrMetallicRoughness": {
        "roughnessFactor": 0.15058133521534653
      }
    },
    {
      "doubleSided": true,
      "name": "blinn2SG",
      "pbrMetallicRoughness": {
        "baseColorFactor": [
          0.03498354252477747,
          0.03498354252477747,
          0.03498354252477747,
          1.0
        ],
        "metallicFactor": 0.0,
        "roughnessFactor": 0.10799267475040003
      }
    }
  ],
  "meshes": [
    {
      "name": "Object_0",
      "primitives": [
        {
          "attributes": {
            "NORMAL": 1,
            "POSITION": 0,
            "TEXCOORD_0": 2
          },
          "indices": 3,
          "material": 0,
          "mode": 4
        }
      ]
    },
    {
      "name": "Object_1",
      "primitives": [
        {
          "attributes": {
            "NORMAL": 5,
            "POSITION": 4,
            "TEXCOORD_0": 6
          },
          "indices": 7,
          "material": 1,
          "mode": 4
        }
      ]
    },
    {
      "name": "Object_2",
      "primitives": [
        {
          "attributes": {
            "NORMAL": 9,
            "POSITION": 8,
            "TEXCOORD_0": 10
          },
          "indices": 11,
          "material": 2,
          "mode": 4
        }
      ]
    }
  ],
  "nodes": [
    {
      "children": [
        1
      ],
      "matrix": [
        1.0,
        0.0,
        0.0,
        0.0,
        0.0,
        2.220446049250313e-16,
        -1.0,
        0.0,
        0.0,
        1.0,
        2.220446049250313e-16,
        0.0,
        0.0,
        0.0,
        0.0,
        1.0
      ],
      "name": "Sketchfab_model"
    },
    {
      "children": [
        2,
        3,
        4
      ],
      "name": "479c1f4cb8a3416793f59004d30f0cdc.obj.cleaner.materialmerger.gles"
    },
    {
      "mesh": 0,
      "name": "Object_2"
    },
    {
      "mesh": 1,
      "name": "Object_3"
    },
    {
      "mesh": 2,
      "name": "Object_4"
    }
  ],
  "samplers": [
    {
      "magFilter": 9729,
      "minFilter": 9987,
      "wrapS": 10497,
      "wrapT": 10497
    }
  ],
  "scene": 0,
  "scenes": [
    {
      "name": "Sketchfab_Scene",
      "nodes": [
        0
      ]
    }
  ],
  "textures": [
    {
      "sampler": 0,
      "source": 0
    },
    {
      "sampler": 0,
      "source": 1
    }
  ]
}
